/vscmnt/brussel_pixiu_data/_data_brussel/112/vsc11236/PredSimResults/SUBJ09mtu3D/worker2.mot
version=1
nRows=4
nColumns=50
inDegrees=yes
endheader
                time	         pelvis_tilt	         pelvis_list	     pelvis_rotation	           pelvis_tx	           pelvis_ty	           pelvis_tz	       hip_flexion_r	     hip_adduction_r	      hip_rotation_r	        knee_angle_r	       ankle_angle_r	         mtp_angle_r	       hip_flexion_l	     hip_adduction_l	      hip_rotation_l	        knee_angle_l	       ankle_angle_l	         mtp_angle_l	    lumbar_extension	      lumbar_bending	     lumbar_rotation	 ercspn_r/activation	 intobl_r/activation	 extobl_r/activation	    abd_r/activation	    add_r/activation	hamstrings_r/activation	bifemsh_r/activation	glut_max_r/activation	iliopsoas_r/activation	rect_fem_r/activation	  vasti_r/activation	gastroc_r/activation	 soleus_r/activation	tib_ant_r/activation	 ercspn_l/activation	 intobl_l/activation	 extobl_l/activation	    abd_l/activation	    add_l/activation	hamstrings_l/activation	bifemsh_l/activation	glut_max_l/activation	iliopsoas_l/activation	rect_fem_l/activation	  vasti_l/activation	gastroc_l/activation	 soleus_l/activation	tib_ant_l/activation	
          1.24740882	         -3.56062994	         -2.23289125	          9.31471471	          1.54678694	          0.98827677	         -0.00473688	         28.01897113	         -0.46935376	         -9.86909785	         -5.96464953	          2.37108676	          0.24662284	        -13.27581733	         -3.91774006	         -4.55251533	        -12.98554403	          5.34631244	         37.06464373	        -13.98018993	          0.47798874	         -3.62714034	          0.01812376	          0.15461518	          0.03751797	          0.03410700	          0.19415844	          0.06120226	          0.15382978	          0.09642751	          0.14832393	          0.02441992	          0.01000042	          0.01760151	          0.01459023	          0.35614401	          0.01745508	          0.01000084	          0.01232933	          0.02571288	          0.02730116	          0.05419429	          0.19021366	          0.01762413	          0.01157576	          0.01000113	          0.01000057	          0.17393649	          0.27058672	          0.01000016	
          1.25988291	         -3.55949601	         -2.26996313	          9.18505104	          1.56696440	          0.98637684	         -0.00424662	         27.84869762	         -0.31301823	         -9.83985261	         -7.72172316	          2.06378362	          0.20890575	        -14.06441285	         -4.14328620	         -5.13997592	        -13.55617948	          3.94343932	         38.70055015	        -13.51100612	          0.85631415	         -3.67506947	          0.01500456	          0.12800320	          0.03106048	          0.12520002	          0.18379494	          0.06301463	          0.12735334	          0.09062209	          0.12279475	          0.02021694	          0.01000030	          0.01457255	          0.01207916	          0.39366846	          0.01445123	          0.01000026	          0.01207842	          0.02128725	          0.02260229	          0.04498834	          0.15940360	          0.01459076	          0.01000172	          0.01000069	          0.01000073	          0.14399905	          0.22847025	          0.01000005	
          1.27235700	         -3.54369038	         -2.30636804	          9.01217481	          1.58736292	          0.98479772	         -0.00367958	         27.59951374	         -0.14973008	         -9.79738107	         -9.36533412	          1.59094221	          0.19968680	        -14.64195818	         -4.38224994	         -5.74990133	        -14.53817360	          2.42790894	         40.20680289	        -13.03083703	          1.23768084	         -3.70073234	          0.01242271	          0.10597159	          0.02571443	          0.18496423	          0.19535186	          0.05998818	          0.10543382	          0.10339362	          0.10165960	          0.01673740	          0.01000022	          0.01206447	          0.01000019	          0.43128482	          0.03164477	          0.01000042	          0.01000131	          0.01762334	          0.01873645	          0.03724919	          0.13196912	          0.01207949	          0.01000545	          0.01000104	          0.01000188	          0.11921429	          0.18914650	          0.01000007	
          1.28483108	         -3.51511233	         -2.33892181	          8.80073145	          1.60763283	          0.98373150	         -0.00302702	         27.43065912	          0.00678579	         -9.74755072	        -11.17352733	          1.20960623	          0.16100351	        -14.89922805	         -4.64237436	         -6.36452844	        -16.08235682	          0.82766447	         41.44201657	        -12.57899996	          1.61989479	         -3.70310436	          0.01717767	          0.08773201	          0.02128854	          0.23749512	          0.23982981	          0.05227935	          0.08728694	          0.16555700	          0.08416218	          0.01385682	          0.04260478	          0.01000236	          0.01001012	          0.43899011	          0.06999814	          0.01000034	          0.01000043	          0.01459006	          0.05871165	          0.03083970	          0.10925977	          0.01000049	          0.09275385	          0.01000057	          0.01000040	          0.09869541	          0.15659102	          0.01000007	
